/* XPM */
static char * facsanadu_xpm[] = {
"32 32 287 2",
"  	c None",
". 	c #FAE4B2",
"+ 	c #FAE6B3",
"@ 	c #FAE5B3",
"# 	c #FBE8B5",
"$ 	c #FBE8B4",
"% 	c #F1AC8B",
"& 	c #F4BE97",
"* 	c #F5C59D",
"= 	c #F4BF99",
"- 	c #F3BE98",
"; 	c #F3BD97",
"> 	c #F8DAAC",
", 	c #FBEBB7",
"' 	c #FBEAB6",
") 	c #FAE6B4",
"! 	c #F8D5A8",
"~ 	c #F4C29A",
"{ 	c #F9DCAC",
"] 	c #FBE7B4",
"^ 	c #E87B69",
"/ 	c #F5C69D",
"( 	c #FAE3B2",
"_ 	c #F9DEAE",
": 	c #E25550",
"< 	c #E1534E",
"[ 	c #EC8E77",
"} 	c #E77465",
"| 	c #DE3C3E",
"1 	c #FCEFBA",
"2 	c #F9DBAC",
"3 	c #E1544F",
"4 	c #E46359",
"5 	c #F8D8AA",
"6 	c #F8D8A9",
"7 	c #ED997E",
"8 	c #E77566",
"9 	c #E36057",
"0 	c #E04B49",
"a 	c #F9DFAE",
"b 	c #E97C6B",
"c 	c #DC3036",
"d 	c #E04846",
"e 	c #F1AE8D",
"f 	c #ED957C",
"g 	c #F6CAA0",
"h 	c #F7D5A8",
"i 	c #E46259",
"j 	c #E77666",
"k 	c #FBE9B6",
"l 	c #F3BA95",
"m 	c #FAE3B1",
"n 	c #ED977D",
"o 	c #DC3338",
"p 	c #E67062",
"q 	c #FBE9B5",
"r 	c #EE9C80",
"s 	c #E9816E",
"t 	c #FCECB8",
"u 	c #F4BD97",
"v 	c #EB8C75",
"w 	c #FBEDB8",
"x 	c #E87A69",
"y 	c #E04A48",
"z 	c #E25650",
"A 	c #F6CDA2",
"B 	c #F8D9AA",
"C 	c #E77364",
"D 	c #FCEDB7",
"E 	c #E4635A",
"F 	c #E45F56",
"G 	c #DD3A3D",
"H 	c #FCF1BB",
"I 	c #F2B28F",
"J 	c #E1504C",
"K 	c #FBECB7",
"L 	c #F6CCA2",
"M 	c #DC3136",
"N 	c #F9DCAD",
"O 	c #FFFFC5",
"P 	c #FCF0BA",
"Q 	c #F9E0AF",
"R 	c #E25952",
"S 	c #E87767",
"T 	c #F3BB96",
"U 	c #F5C39C",
"V 	c #EA8571",
"W 	c #EB8A74",
"X 	c #E66F62",
"Y 	c #F2B390",
"Z 	c #DA2931",
"` 	c #F5C89F",
" .	c #E25B53",
"..	c #EFA284",
"+.	c #F7D3A6",
"@.	c #DA232D",
"#.	c #D9202B",
"$.	c #D81D29",
"%.	c #DA262F",
"&.	c #FAE2B0",
"*.	c #F0A889",
"=.	c #E2534E",
"-.	c #E1544E",
";.	c #E4645A",
">.	c #F6CFA4",
",.	c #FAE2B1",
"'.	c #EE9D81",
").	c #F9E1AF",
"!.	c #DB2C33",
"~.	c #EE9A7F",
"{.	c #DD383C",
"].	c #F0AA8A",
"^.	c #F8D7A9",
"/.	c #F4C19A",
"(.	c #E77766",
"_.	c #DB2D34",
":.	c #E97F6C",
"<.	c #F6CBA1",
"[.	c #E35D55",
"}.	c #EB8772",
"|.	c #FAE8B5",
"1.	c #E66A5F",
"2.	c #EA836F",
"3.	c #EA8772",
"4.	c #DC3439",
"5.	c #E35B54",
"6.	c #DD3B3D",
"7.	c #FAE7B4",
"8.	c #FAE1B0",
"9.	c #E9836F",
"0.	c #E77263",
"a.	c #F4C29B",
"b.	c #E1514D",
"c.	c #EA8872",
"d.	c #F5C79E",
"e.	c #F1B390",
"f.	c #F4BF98",
"g.	c #E14F4B",
"h.	c #FDF6BF",
"i.	c #EB8D76",
"j.	c #FCF3BC",
"k.	c #E35A53",
"l.	c #DC3539",
"m.	c #EEA184",
"n.	c #EE9E82",
"o.	c #DC3238",
"p.	c #DD373B",
"q.	c #F3BF99",
"r.	c #EB8C76",
"s.	c #D9252E",
"t.	c #F5C9A0",
"u.	c #F4C39B",
"v.	c #DA242E",
"w.	c #F7D4A7",
"x.	c #DC3137",
"y.	c #E9806D",
"z.	c #E87D6B",
"A.	c #EC927A",
"B.	c #FDF5BD",
"C.	c #F7D2A6",
"D.	c #DD3C3E",
"E.	c #E04947",
"F.	c #FCEDB8",
"G.	c #F2B18F",
"H.	c #F7D2A5",
"I.	c #F4BE98",
"J.	c #E25751",
"K.	c #FAE5B2",
"L.	c #F0A587",
"M.	c #EB8B75",
"N.	c #EC9078",
"O.	c #F0AB8B",
"P.	c #FBEBB6",
"Q.	c #ED957B",
"R.	c #E77464",
"S.	c #E77968",
"T.	c #EC9179",
"U.	c #F0A989",
"V.	c #F7D3A7",
"W.	c #EC937B",
"X.	c #F7D1A6",
"Y.	c #FCF0BB",
"Z.	c #E35851",
"`.	c #F9E0B0",
" +	c #F2B290",
".+	c #FBE6B4",
"++	c #F9E1B0",
"@+	c #F6CEA2",
"#+	c #F8DAAB",
"$+	c #DD393C",
"%+	c #FBEBB8",
"&+	c #EB8F78",
"*+	c #E35E55",
"=+	c #EC8D76",
"-+	c #DA2A32",
";+	c #ED987E",
">+	c #DE3B3E",
",+	c #EA8873",
"'+	c #EFA788",
")+	c #F0A888",
"!+	c #F4C39C",
"~+	c #E5665B",
"{+	c #DF4545",
"]+	c #E66A5E",
"^+	c #EE9E81",
"/+	c #E35852",
"(+	c #EFA183",
"_+	c #EA8671",
":+	c #E77264",
"<+	c #F5C99F",
"[+	c #DE4142",
"}+	c #EC947B",
"|+	c #EC8E76",
"1+	c #F3B793",
"2+	c #EC8F78",
"3+	c #EE997E",
"4+	c #DD3B3E",
"5+	c #ED997F",
"6+	c #EC9079",
"7+	c #F2B894",
"8+	c #DB3137",
"9+	c #E9826F",
"0+	c #E25851",
"a+	c #EE9F83",
"b+	c #F1AE8C",
"c+	c #E56A5F",
"d+	c #E87867",
"e+	c #E66B5F",
"f+	c #ED987D",
"g+	c #DF4343",
"h+	c #F9DDAD",
"i+	c #DA242D",
"j+	c #EB8F77",
"k+	c #EA8973",
"l+	c #F2B492",
"m+	c #E56B5F",
"n+	c #F1AF8D",
"o+	c #DE3C3F",
"p+	c #E56C5F",
"q+	c #DA2B32",
"r+	c #EA8570",
"s+	c #F0A788",
"t+	c #F1AA8A",
"u+	c #EE9B7F",
"v+	c #DF4141",
"w+	c #E46158",
"x+	c #EB8A73",
"y+	c #DB2A32",
"z+	c #E5695D",
"A+	c #E14F4C",
"B+	c #D91F2B",
"C+	c #E2524D",
"D+	c #E87666",
"E+	c #E97E6C",
"F+	c #F6CCA1",
"G+	c #F2B692",
"H+	c #F8DBAB",
"I+	c #F2B592",
"J+	c #EFA083",
"K+	c #F7CFA3",
"L+	c #E77062",
"M+	c #F4C09A",
"N+	c #E87968",
"O+	c #F9DDAE",
"P+	c #F1B18F",
"Q+	c #EFA285",
"R+	c #DB2B32",
"S+	c #D9222C",
"T+	c #D81F2A",
"U+	c #E04746",
"V+	c #DF4745",
"W+	c #E04B48",
"X+	c #E14E4A",
"Y+	c #F0AC8C",
"Z+	c #FCEEB9",
"`+	c #FBEAB7",
" @	c #FAE8B4",
".@	c #F3B894",
"+@	c #FCF2BC",
"@@	c #FDF3BD",
"#@	c #EB8873",
"$@	c #E5685C",
"%@	c #F3BC96",
"&@	c #FAE7B3",
"*@	c #E5675C",
"=@	c #FAE9B5",
"-@	c #F8D6A8",
". . . . . . . . . . . . . . . . . . . . . . + @ . . # @ . . . . ",
". . $ % & * = - ; > @ , # ' @ . . . . ) + ! ~ { . ] ^ / ( @ + . ",
". . ( _ : < [ } | 1 2 3 4 3 5 . . ) 6 7 8 9 0 @ a b c d e f g . ",
". . . h i j k 1 l . m n o p q . # r s t ] u v w x 1 = y z A @ . ",
". . . B 4 C q . + + D E F G H . I J K . . @ # L M A N O P ( . . ",
". . . Q R S T U ] V W X Y Z ` ,  .... . . . . +.@.#.$.%.S &.. . ",
". . . *.=.-.;.>.,.: '.4 ).!.~.. {.].( . . . . @ N ^./.(._.:.+ . ",
". . . <.[.}.' m @ |.1.2.3.4.5.' 6.:.7.. . . 8.&.^.l 8., 9.0.] . ",
". . . a.b.c.+ d.e.f.g.h.c.i.%.j.k.l.{ 7.+ , m.n.o.!.p.# ~.'.. . ",
". . . q.d r.# 4 c s.t.m q u.v.].w.x.6.y.z.A.e A B.C.D.E.W F.. . ",
". . ,.G.} u H.I.J.l K.. ] L.M.N.Q _ v r ^.] 7.. . m e A.' . . . ",
". . . O.H 7.7.K.t . . . . + K.P.Q.R.S.y.T.U.V.. . . $ ] . . . . ",
". . . # ( . . . . . . . . . . W.Y X.m Y.Z.`.] . . . . . . . . . ",
". . . . . . . _  +Q A . . .+++@+g @ |.#+$+%+@ @ 7.. . . . . . . ",
". . . . . . , &+*+=+-+;+>+,+'+)+#.!+~+~+{+]+T.^+3 ' . . . . . . ",
". . . . . . @ 5 W.v /+_ (+:.d.+ M _+:+<+[+}+|+a.5.# . . . . . . ",
". . . . . . , 1+2+3+4+#+5+6+# 7+8+}.9+u.0+S a+b+c+7.. . . . . . ",
". . . . . k d+I e+e.#._ V f+g+h+i+j+k+l+m+8 a+n+d++ . . . . . . ",
". . . . . # o+H.T.n.Z Q d+9.p+,.q+r+i.s+R.< t+u+y.+ . . . . . . ",
". . . . . ] v+ +w+x+y++ z z+A+u B+d+C+D+0+[+f e+E+k . . . . . . ",
". . . . . + T |.F+!+O.@ G+H+I+, e t J+@ '.K+L+M+V Y ,.. . . . . ",
". . . . . . . . . K.m . . . ( . . . ) . . ( # . @ , L.@ . . . . ",
". . . . . . . . . . . . . . . . . . . . . . . . . t N+F.. . . . ",
". . . . . . . . . . . . . . . . . . . . . . . . . t V , . . . . ",
". . . . . . . . . . . . . . . . . . . . . . . . . ,.n.. . . . . ",
". . . . . . P.O+I+n.c.W P++.] F.# ( . . . . . . q Q+&.. . . . . ",
". . . . ( ) 4 R+S+T+U+V+W+E.U+X+S Y+' Z+`+ @, +.G+8.m . . . . . ",
". . . . K.o g..@<.+@1 1 F.F.@@B A.#@$@2.]. +%@! ] . . . . . . . ",
". . . &@y.x , . . . . . . . . . . @  @q 7.7.. . . . . . . . . . ",
". . . , *@H . . . . . . . . . . . . . . . . . . . . . . . . . . ",
". . . + ].=@. . . . . . . . . . . . . . . . . . . . . . . . . . ",
". . . . + -@K.. . . . . . . . . . . . . . . . . . . . . . . . . "};
